/* XPM */
static char *_496169809730[] = {
/* columns rows colors chars-per-pixel */
"64 64 48 1 ",
"  c #0186DA",
". c #0186DB",
"X c #0187DB",
"o c #0286DA",
"O c #0287DA",
"+ c #0287DB",
"@ c #0387DB",
"# c #0487DA",
"$ c #0187DC",
"% c #0488DB",
"& c #0288DD",
"* c #0488DC",
"= c #0098F8",
"- c #0299F9",
"; c #0099FA",
": c #009AFA",
"> c #009AFB",
", c #009AFC",
"< c #009BFE",
"1 c #009BFF",
"2 c #009CFE",
"3 c #019CFE",
"4 c #009CFF",
"5 c #019CFF",
"6 c #7BC0E8",
"7 c #7AC1EA",
"8 c #7DC2E9",
"9 c #7EC2E8",
"0 c #7EC2E9",
"q c #81C3E8",
"w c #80C3E9",
"e c #82C3E8",
"r c #CCCFD2",
"t c #CFD0D1",
"y c #D0D0D0",
"u c #D1D0D0",
"i c #D1D1D0",
"p c #D0D0D1",
"a c #D0D1D1",
"s c gray82",
"d c #D2D1D1",
"f c #D2D2D2",
"g c #D7D7D7",
"h c gray85",
"j c gray86",
"k c gainsboro",
"l c #DDDDDD",
"z c None",
/* pixels */
"zzzzzzzzzzzzzzzzzzzzzzzzzzzzzzzzzzzzzzzzzzzzzzzzzzzzzzzzzzzzzzzz",
"zzzzzzzzzzzzzzzzzzzzzzzzzzzzzzzzzzzzzzzzzzzzzzzzzzzzzzzzzzzzzzzz",
"zzzzzzzzzzzzzzzzzzzzzzzzzzzzzzzzzzzzzzzzzzzzzzzzzzzzzzzzzzzzzzzz",
"zzzzzzzzzzzzzzzzzzzzzzzzzzzzzzzzzzzzzzzzzzzzzzzzzzzzzzzzzzzzzzzz",
"zzzzzzzzzzzzzzzzzzzzzzzzzzzzzzzzzzzzzzzzzzzzzzzzzzzzzzzzzzzzzzzz",
"zzzzzzzzzzzzzzzzzzzzzzzzzzzzzzzzzzzzzzzzzzzzzzzzzzzzzzzzzzzzzzzz",
"zzzzzzzzzzzzzzzzzzzzzzzzzzzzzzzzzzzzzzzzzzzzzzzzzzzzzzzzzzzzzzzz",
"zzzzzzzzzzzzzzzzzzzzzzzzzzzzzzzzzzzzzzzzzzzzzzzzzzzzzzzzzzzzzzzz",
"zzzzzzzzzzzzzzzzzzzzzzzzzzzzzzzzzzzzzzzzzzzzzzzzzzzzzzzzzzzzzzzz",
"zzzzzzzzzzzzzzzzzzzzzzzzzzzzzzzzzzzzzzzzzzzzzzzzzzzzzzzzzzzzzzzz",
"zzzzzzzzzzzzzzzzzzzzzzzzzzzzzzzzzzzzzzzzzzzzzzzzzzzzzzzzzzzzzzzz",
"zzzzzzzzzzzzzzzzzzzzzzzzzzzzzzz@=zzzzzzzzzzzzzzzzzzzzzzzzzzzzzzz",
"zzzzzzzzzzzzzzzzzzzzzzzzzzzzzz++=4zzzzzzzzzzzzzzzzzzzzzzzzzzzzzz",
"zzzzzzzzzzzzzzzzzzzzzzzzzzzzz+++=44zzzzzzzzzzzzzzzzzzzzzzzzzzzzz",
"zzzzzzzzzzzzzzzzzzzzzzzzzzzz+++@,444zzzzzzzzzzzzzzzzzzzzzzzzzzzz",
"zzzzzzzzzzzzzzzzzzzzzzzzzzz+++++=4444zzzzzzzzzzzzzzzzzzzzzzzzzzz",
"zzzzzzzzzzzzzzzzzzzzzzzzzz++++++=4,444zzzzzzzzzzzzzzzzzzzzzzzzzz",
"zzzzzzzzzzzzzzzzzzzzzzzzz++++++zz,44444zzzzzzzzzzzzzzzzzzzzzzzzz",
"zzzzzzzzzzzzzzzzzzzzzzzz++++++zzzz444444zzzzzzzzzzzzzzzzzzzzzzzz",
"zzzzzzzzzzzzzzzzzzzzzzz++++++zzzzzz444444zzzzzzzzzzzzzzzzzzzzzzz",
"zzzzzzzzzzzzzzzzzzzzzz++++++zzzzzzzz444444zzzzzzzzzzzzzzzzzzzzzz",
"zzzzzzzzzzzzzzzzzzzzz++++++zzzzzzzzzz444444zzzzzzzzzzzzzzzzzzzzz",
"zzzzzzzzzzzzzzzzzzzz++++++zzzzzzzzzzzz444444zzzzzzzzzzzzzzzzzzzz",
"zzzzzzzzzzzzzzzzzzzz++++++zzzzzzzzzzzz4444,4zzzzzzzzzzzzzzzzzzzz",
"zzzzzzzzzzzzzzzzzzzzz@@@@@@zzzzzzzzzz444,44zzzzzzzzzzzzzzzzzzzzz",
"zzzzzzzzzzzzzzzzzzzzzz@@@@@@zzzzzzzz444444zzzzzzzzzzzzzzzzzzzzzz",
"zzzzzzzzzzzzzzzzzzzz6zz%++@@+zzzzzz444,44zz7zzzzzzzzzzzzzzzzzzzz",
"zzzzzzzzzzzzzzzzzzzzq9zz+++@++zzzz444444zz9qzzzzzzzzzzzzzzzzzzzz",
"zzzzzzzzzzzzzzzzzzzzzq9zz%+++++zz444,44zz9qzzzzzzzzzzzzzzzzzzzzz",
"zzzzzzzzzzzzzzzzzzzzzzq9zz%+++++,4,444zz9qzzzzzzzzzzzzzzzzzzzzzz",
"zzzzzzzzzzzzzzzzzzzzrzzq9zz%++++=4,44zzqqzzrzzzzzzzzzzzzzzzzzzzz",
"zzzzzzzzzzzzzzzzzzzzsszzq9zz++++=444zz9qzzsszzzzzzzzzzzzzzzzzzzz",
"zzzzzzzzzzzzzzzzzzzzzsszzq9zz%+@=44zz9wzzssszzzzzzzzzzzzzzzzzzzz",
"zzzzzzzzzzzzzzzzzzzzzzsszzq9zz#+>4zzqwzzusrzzzzzzzzzzzzzzzzzzzzz",
"zzzzzzzzzzzzzzzzzzzzzzzsszzq9zz*-zz9qzzssuzzzzzzzzzzzzzzzzzzzzzz",
"zzzzzzzzzzzzzzzzzzzzzzzzsszzq9zzzzwwzzssszzzzzzzzzzzzzzzzzzzzzzz",
"zzzzzzzzzzzzzzzzzzzzzzzzzsszzq9zz9qzzusszzzzzzzzzzzzzzzzzzzzzzzz",
"zzzzzzzzzzzzzzzzzzzzzzzzzzstzzq99qzzsuszzzzzzzzzzzzzzzzzzzzzzzzz",
"zzzzzzzzzzzzzzzzzzzzzzzzzzzsrzzqqzzssszzzzzzzzzzzzzzzzzzzzzzzzzz",
"zzzzzzzzzzzzzzzzzzzzzzzzzzzzsszzzzrstzzzzzzzzzzzzzzzzzzzzzzzzzzz",
"zzzzzzzzzzzzzzzzzzzzzzzzzzzzzsszzurszzzzzzzzzzzzzzzzzzzzzzzzzzzz",
"zzzzzzzzzzzzzzzzzzzzzzzzzzzzzzrususzzzzzzzzzzzzzzzzzzzzzzzzzzzzz",
"zzzzzzzzzzzzzzzzzzzzzzzzzzzzzzzssszzzzzzzzzzzzzzzzzzzzzzzzzzzzzz",
"zzzzzzzzzzzzzzzzzzzzzzzzzzzzzzzzszzzzzzzzzzzzzzzzzzzzzzzzzzzzzzz",
"zzzzzzzzzzzzzzzzzzzzzzzzzzzzzzzzzzzzzzzzzzzzzzzzzzzzzzzzzzzzzzzz",
"zzzzzzzzzzzzzzzzzzzzzzzzzzzzzzzzzzzzzzzzzzzzzzzzzzzzzzzzzzzzzzzz",
"zzzzzzzzzzzzzzzzzzzzzzzzzzzzzzzzzzzzzzzzzzzzzzzzzzzzzzzzzzzzzzzz",
"zzzzzzzzzzzzzzzzzzzzzzzzzzzzzzzzzzzzzzzzzzzzzzzzzzzzzzzzzzzzzzzz",
"zzzzzzzzzzzzzzzzzzzzzzzzzzzzzzzzzzzzzzzzzzzzzzzzzzzzzzzzzzzzzzzz",
"zzzzzzzzzzzzzzzzzzzzzzzzzzzzzzzzzzzzzzzzzzzzzzzzzzzzzzzzzzzzzzzz",
"zzzzzzzzzzzzzzzzzzzzzzzzzzzzzzzzzzzzzzzzzzzzzzzzzzzzzzzzzzzzzzzz",
"zzzzzzzzzzzzzzzzzzzzzzzzzzzzzzzzzzzzzzzzzzzzzzzzzzzzzzzzzzzzzzzz",
"zzzzzzzzzzzzzzzzzzzzzzzzzzzzzzzzzzzzzzzzzzzzzzzzzzzzzzzzzzzzzzzz",
"zzzzzzzzzzzzzzzzzzzzszzzzzzzzzzzzzzzzzzzzzzszzzzzzzzzzzzzzzzzzzz",
"zzzzzzzzzzzzzzzzzzzhkkzkkkzzkkzkkkkzkzkkkzkkjzzzzzzzzzzzzzzzzzzz",
"zzzzzzzzzzzzzzzzzzzjzkzjzjzzjzzjjzjzjzzjzzkzzzzzzzzzzzzzzzzzzzzz",
"zzzzzzzzzzzzzzzzzzzjzzzkzkzzkzzkkzkzkzzkzzkkzzzzzzzzzzzzzzzzzzzz",
"zzzzzzzzzzzzzzzzzzzjzzzkkkzzkkzkkzkzkzzkzzzkjzzzzzzzzzzzzzzzzzzz",
"zzzzzzzzzzzzzzzzzzzkzjzkzkzzkzzkkzjzkzzkzzzzjzzzzzzzzzzzzzzzzzzz",
"zzzzzzzzzzzzzzzzzzzhzjzjzjzzjzzjjjkzjzzjzzkzjzzzzzzzzzzzzzzzzzzz",
"zzzzzzzzzzzzzzzzzzzhkzzkzkzzkkkzkkzzkzzkzzzkkzzzzzzzzzzzzzzzzzzz",
"zzzzzzzzzzzzzzzzzzzzzzzzzzzzzzzzzzzzzzzzzzzzzzzzzzzzzzzzzzzzzzzz",
"zzzzzzzzzzzzzzzzzzzzzzzzzzzzzzzzzzzzzzzzzzzzzzzzzzzzzzzzzzzzzzzz",
"zzzzzzzzzzzzzzzzzzzzzzzzzzzzzzzzzzzzzzzzzzzzzzzzzzzzzzzzzzzzzzzz"
};
