/* XPM */
static char *_496169817669[] = {
/* columns rows colors chars-per-pixel */
"32 32 70 1 ",
"  c #0083D9",
". c #0083DA",
"X c #0186D9",
"o c #0084DA",
"O c #0185DA",
"+ c #0186DA",
"@ c #0186DB",
"# c #0187DB",
"$ c #0286DA",
"% c #0287DB",
"& c #0387DB",
"* c #0085DC",
"= c #0187DC",
"- c #0388DB",
"; c #0188DD",
": c #0388DC",
"> c #0098FB",
", c #0099FB",
"< c #009AFB",
"1 c #019AFB",
"2 c #009BFD",
"3 c #0099FF",
"4 c #009AFE",
"5 c #009BFE",
"6 c #009AFF",
"7 c #009BFF",
"8 c #009CFE",
"9 c #019CFE",
"0 c #009CFF",
"q c #1F9FF2",
"w c #25A4F7",
"e c #23A4F8",
"r c #27A6F8",
"t c #25A6FA",
"y c #74C0EB",
"u c #81C1E6",
"i c #82C1E6",
"p c #81C2E7",
"a c #82C2E7",
"s c #82C3E7",
"d c #87C2E4",
"f c #84C3E6",
"g c #85C3E6",
"h c #85C3E7",
"j c #88C6E7",
"k c #8DC7E6",
"l c #83C5EA",
"z c #84C4E8",
"x c #86C5E8",
"c c #87C6E9",
"v c #86C8EB",
"b c #87C8EB",
"n c #88C8EA",
"m c #89C8EA",
"M c #8FCAEA",
"N c #D5D1CF",
"B c #D7D2CE",
"V c #D8D2CE",
"C c #D9D2CE",
"Z c #DAD2CE",
"A c #DCD2CD",
"S c #CDD0D1",
"D c #CED0D1",
"F c #CFD0D1",
"G c #CED0D2",
"H c #D0D0D1",
"J c #DADADA",
"K c gray86",
"L c gainsboro",
"P c None",
/* pixels */
"PPPPPPPPPPPPPPPPPPPPPPPPPPPPPPPP",
"PPPPPPPPPPPPPPPPPPPPPPPPPPPPPPPP",
"PPPPPPPPPPPPPPPPPPPPPPPPPPPPPPPP",
"PPPPPPPPPPPPPPPPPPPPPPPPPPPPPPPP",
"PPPPPPPPPPPPPPPPPPPPPPPPPPPPPPPP",
"PPPPPPPPPPPPPPPPPPPPPPPPPPPPPPPP",
"PPPPPPPPPPPPPPP&,PPPPPPPPPPPPPPP",
"PPPPPPPPPPPPPP##,0PPPPPPPPPPPPPP",
"PPPPPPPPPPPPP##&000PPPPPPPPPPPPP",
"PPPPPPPPPPPP&##PP,00PPPPPPPPPPPP",
"PPPPPPPPPPP###PPPP000PPPPPPPPPPP",
"PPPPPPPPPP###PPPPPP000PPPPPPPPPP",
"PPPPPPPPPPP###PPPP,0,PPPPPPPPPPP",
"PPPPPPPPPPMP &#PP00,rkPPPPPPPPPP",
"PPPPPPPPPPPmP#&#0,,rjyPPPPPPPPPP",
"PPPPPPPPPPAdbP &,,rlgZPPPPPPPPPP",
"PPPPPPPPPPFZplP&,rlpBFPPPPPPPPPP",
"PPPPPPPPPPPFZpmPegpBFPPPPPPPPPPP",
"PPPPPPPPPPPPFZhlzhZFPPPPPPPPPPPP",
"PPPPPPPPPPPPPFZhpZFPPPPPPPPPPPPP",
"PPPPPPPPPPPPPPFHBFPPPPPPPPPPPPPP",
"PPPPPPPPPPPPPPPFHPPPPPPPPPPPPPPP",
"PPPPPPPPPPPPPPPPPPPPPPPPPPPPPPPP",
"PPPPPPPPPPPPPPPPPPPPPPPPPPPPPPPP",
"PPPPPPPPPPPPPPPPPPPPPPPPPPPPPPPP",
"PPPPPPPPPPPPPPPPPPPPPPPPPPPPPPPP",
"PPPPPPPPPPPPPPPPPPPPPPPPPPPPPPPP",
"PPPPPPPPPPKLLPKPLLPKPKPPPPPPPPPP",
"PPPPPPPPPPPPKPLPPKPPPPPPPPPPPPPP",
"PPPPPPPPPJLKLPPPKKPPPPJPPPPPPPPP",
"PPPPPPPPPPPPPPPPPPPPPPPPPPPPPPPP",
"PPPPPPPPPPPPPPPPPPPPPPPPPPPPPPPP"
};
