/* XPM */
static char *_496169823825[] = {
/* columns rows colors chars-per-pixel */
"16 16 27 1 ",
"  c #0083DA",
". c #0286D9",
"X c #0084DA",
"o c #0287DB",
"O c #0387DB",
"+ c #0189DE",
"@ c #0099FA",
"# c #0098FD",
"$ c #0099FE",
"% c #009AFE",
"& c #009BFE",
"* c #019CFE",
"= c #009CFF",
"- c #2096E0",
"; c #209BE6",
": c #299BE1",
"> c #22A4F4",
", c #20A6FA",
"< c #29A9F9",
"1 c #A8CBDE",
"2 c #AECDDD",
"3 c #B2CEDD",
"4 c #B4D0DE",
"5 c #A8CCE0",
"6 c #B0D1E2",
"7 c gainsboro",
"8 c None",
/* pixels */
"8888888888888888",
"8888888888888888",
"8888888888888888",
"8888888+@8888888",
"888888OO**888888",
"88888XX88*&88888",
"88888-X88&,88888",
"888886: #<288888",
"8888884;>3888888",
"8888888518888888",
"8888888888888888",
"8888888888888888",
"8888888888888888",
"8888888888888888",
"8888877878888888",
"8888888888888888"
};
