<svg id="svg" version="1.1" width="512" height="512" xmlns="http://www.w3.org/2000/svg" xmlns:xlink="http://www.w3.org/1999/xlink" style="display: block;"><g id="svgg"><path id="path0" d="" stroke="none" fill="#000000" fill-rule="evenodd"></path><path id="path1" d="M236.421 220.126 C 218.425 238.061,202.756 253.500,201.599 254.436 L 199.497 256.138 165.569 222.213 C 146.908 203.554,131.278 188.286,130.834 188.284 C 130.391 188.283,128.227 190.133,126.027 192.397 L 122.027 196.513 161.021 235.756 C 182.468 257.340,200.277 275.000,200.597 275.000 C 200.916 275.000,218.748 257.427,240.224 235.948 L 279.269 196.897 274.620 192.198 C 272.063 189.614,269.784 187.504,269.556 187.509 C 269.327 187.514,254.417 202.192,236.421 220.126 M120.545 336.961 C 116.531 340.952,114.495 363.363,117.297 372.714 C 121.306 386.096,137.862 382.995,138.887 368.670 L 139.272 363.281 134.871 363.281 L 130.469 363.281 130.469 367.482 C 130.469 372.539,129.152 374.156,126.149 372.788 L 124.219 371.908 124.219 357.925 C 124.219 342.881,124.503 341.788,128.277 342.323 C 129.860 342.547,130.107 343.075,130.314 346.680 L 130.550 350.781 134.806 350.781 L 139.063 350.781 139.063 347.241 C 139.063 342.760,137.511 339.018,134.755 336.850 C 131.652 334.409,123.045 334.476,120.545 336.961 M142.969 357.813 L 142.969 380.469 146.875 380.469 L 150.781 380.469 150.781 372.266 C 150.781 364.148,150.801 364.063,152.639 364.063 C 154.283 364.063,154.648 364.670,155.805 369.336 C 158.860 381.662,158.104 380.469,162.853 380.469 L 167.052 380.469 164.544 370.767 L 162.036 361.064 163.629 358.878 C 165.554 356.235,166.289 346.704,164.921 342.136 C 163.247 336.550,160.490 335.156,151.112 335.156 L 142.969 335.156 142.969 357.813 M171.875 357.813 L 171.875 380.469 182.031 380.469 L 192.188 380.469 192.188 376.563 L 192.188 372.656 185.938 372.656 L 179.688 372.656 179.688 367.188 L 179.688 361.719 184.375 361.719 L 189.063 361.719 189.063 357.813 L 189.063 353.906 184.375 353.906 L 179.688 353.906 179.688 348.438 L 179.688 342.969 185.938 342.969 L 192.188 342.969 192.188 339.063 L 192.188 335.156 182.031 335.156 L 171.875 335.156 171.875 357.813 M196.094 357.813 L 196.094 380.469 203.320 380.466 C 216.794 380.460,217.969 378.644,217.969 357.813 C 217.969 336.981,216.794 335.165,203.320 335.159 L 196.094 335.156 196.094 357.813 M223.438 357.813 L 223.438 380.469 227.344 380.469 L 231.250 380.469 231.250 357.813 L 231.250 335.156 227.344 335.156 L 223.438 335.156 223.438 357.813 M235.156 339.063 L 235.156 342.969 238.672 342.969 L 242.188 342.969 242.188 361.719 L 242.188 380.469 246.094 380.469 L 250.000 380.469 250.000 361.719 L 250.000 342.969 253.516 342.969 L 257.031 342.969 257.031 339.063 L 257.031 335.156 246.094 335.156 L 235.156 335.156 235.156 339.063 M266.211 336.000 C 259.155 340.110,260.717 349.807,269.988 359.443 C 276.879 366.607,278.361 370.191,275.434 372.621 C 272.960 374.674,270.397 373.165,268.838 368.737 C 267.643 365.342,260.820 366.328,261.463 369.802 C 263.739 382.110,277.351 385.473,282.617 375.030 C 285.820 368.679,283.461 361.193,276.391 355.271 C 269.722 349.684,267.832 342.146,272.950 341.545 C 274.728 341.336,275.248 341.703,275.999 343.694 C 277.012 346.376,279.781 346.950,282.417 345.022 C 284.199 343.719,282.266 337.318,279.671 335.929 C 277.789 334.922,267.973 334.974,266.211 336.000 M157.657 348.810 C 157.919 354.882,157.058 356.250,152.976 356.250 L 150.781 356.250 150.781 349.564 L 150.781 342.879 154.102 343.119 L 157.422 343.359 157.657 348.810 M210.129 344.480 C 210.584 345.331,210.938 351.158,210.938 357.813 C 210.938 371.272,210.534 372.656,206.613 372.656 L 203.906 372.656 203.906 357.813 L 203.906 342.969 206.613 342.969 C 208.490 342.969,209.568 343.432,210.129 344.480 " stroke="none" fill="#dddddd" fill-rule="evenodd"></path><path id="path2" d="M160.547 184.375 C 181.598 205.430,198.998 222.656,199.213 222.656 C 199.428 222.656,182.380 205.430,161.328 184.375 C 140.277 163.320,122.877 146.094,122.662 146.094 C 122.447 146.094,139.495 163.320,160.547 184.375 " stroke="none" fill="#0069c3" fill-rule="evenodd"></path><path id="path3" d="M160.694 105.321 C 139.344 126.675,121.875 144.325,121.875 144.543 C 121.875 145.275,200.052 223.125,200.419 222.758 C 200.618 222.559,200.781 213.756,200.781 203.196 L 200.781 183.996 181.250 164.453 L 161.719 144.911 181.247 125.385 L 200.774 105.859 200.778 86.570 C 200.780 75.960,200.496 67.103,200.147 66.888 C 199.799 66.673,182.045 83.968,160.694 105.321 M262.477 167.773 L 257.422 173.047 262.695 167.991 C 267.594 163.296,268.326 162.500,267.751 162.500 C 267.631 162.500,265.258 164.873,262.477 167.773 M246.875 183.203 C 244.977 185.137,243.600 186.719,243.815 186.719 C 244.030 186.719,245.759 185.137,247.656 183.203 C 249.554 181.270,250.931 179.688,250.716 179.688 C 250.501 179.688,248.773 181.270,246.875 183.203 M235.498 194.727 L 233.203 197.266 235.742 194.971 C 238.109 192.832,238.640 192.188,238.037 192.188 C 237.902 192.188,236.760 193.330,235.498 194.727 M260.895 195.117 L 258.203 198.047 261.133 195.355 C 262.744 193.874,264.063 192.555,264.063 192.425 C 264.063 191.828,263.401 192.390,260.895 195.117 M226.123 204.102 L 223.828 206.641 226.367 204.346 C 228.734 202.207,229.265 201.563,228.662 201.563 C 228.527 201.563,227.385 202.705,226.123 204.102 M244.901 211.133 L 239.453 216.797 245.117 211.349 C 250.378 206.289,251.138 205.469,250.565 205.469 C 250.446 205.469,247.897 208.018,244.901 211.133 " stroke="none" fill="#0088dc" fill-rule="evenodd"></path><path id="path4" d="M272.236 151.758 L 268.359 155.859 272.461 151.982 C 274.717 149.850,276.563 148.005,276.563 147.881 C 276.563 147.298,275.839 147.947,272.236 151.758 M258.154 165.820 L 255.859 168.359 258.398 166.065 C 260.765 163.926,261.297 163.281,260.693 163.281 C 260.559 163.281,259.416 164.424,258.154 165.820 M242.549 181.445 L 238.672 185.547 242.773 181.670 C 246.585 178.068,247.233 177.344,246.650 177.344 C 246.527 177.344,244.681 179.189,242.549 181.445 M224.973 199.023 L 220.703 203.516 225.195 199.245 C 229.369 195.278,230.045 194.531,229.465 194.531 C 229.343 194.531,227.322 196.553,224.973 199.023 M209.745 214.258 L 204.297 219.922 209.961 214.474 C 215.222 209.414,215.982 208.594,215.409 208.594 C 215.290 208.594,212.741 211.143,209.745 214.258 " stroke="none" fill="#0077ff" fill-rule="evenodd"></path><path id="path5" d="M200.606 86.132 L 200.821 105.859 220.332 125.396 L 239.844 144.933 220.313 164.453 L 200.781 183.973 200.781 203.617 L 200.781 223.262 239.453 184.628 C 260.723 163.380,278.125 145.400,278.125 144.674 C 278.125 143.554,201.887 66.407,200.778 66.406 C 200.565 66.405,200.487 75.282,200.606 86.132 M273.828 166.406 C 275.944 168.555,277.851 170.313,278.066 170.313 C 278.281 170.313,276.726 168.555,274.609 166.406 C 272.493 164.258,270.586 162.500,270.371 162.500 C 270.156 162.500,271.712 164.258,273.828 166.406 " stroke="none" fill="#009dff" fill-rule="evenodd"></path><path id="path6" d="M241.793 189.113 C 226.756 204.180,211.001 219.711,206.781 223.625 L 199.108 230.742 164.791 196.432 L 130.474 162.121 125.985 166.610 L 121.496 171.099 160.940 210.550 L 200.385 250.000 239.255 211.136 C 260.633 189.760,278.118 171.919,278.109 171.487 C 278.097 170.872,269.810 161.719,269.266 161.719 C 269.192 161.719,256.829 174.046,241.793 189.113 M147.656 222.901 C 147.656 223.035,148.799 224.178,150.195 225.440 L 152.734 227.734 150.440 225.195 C 148.301 222.829,147.656 222.297,147.656 222.901 M225.766 230.273 L 218.359 237.891 225.977 230.484 C 233.051 223.605,233.949 222.656,233.383 222.656 C 233.267 222.656,229.839 226.084,225.766 230.273 M159.375 234.619 C 159.375 234.754,160.518 235.896,161.914 237.159 L 164.453 239.453 162.159 236.914 C 160.020 234.547,159.375 234.016,159.375 234.619 M209.375 246.484 C 207.477 248.418,206.100 250.000,206.315 250.000 C 206.530 250.000,208.259 248.418,210.156 246.484 C 212.054 244.551,213.431 242.969,213.216 242.969 C 213.001 242.969,211.273 244.551,209.375 246.484 M125.987 334.936 C 127.175 335.115,128.933 335.110,129.894 334.925 C 130.854 334.740,129.883 334.593,127.734 334.598 C 125.586 334.604,124.800 334.756,125.987 334.936 M270.912 334.941 C 272.317 335.115,274.426 335.111,275.600 334.933 C 276.774 334.755,275.625 334.613,273.047 334.617 C 270.469 334.621,269.508 334.767,270.912 334.941 " stroke="none" fill="#81c4ea" fill-rule="evenodd"></path><path id="path7" d="" stroke="none" fill="#0000ff" fill-rule="evenodd"></path></g></svg>